<svg xmlns="http://www.w3.org/2000/svg" viewBox="0 0 220 220" role="img" aria-labelledby="title desc">
  <title id="title">Herb ligi</title>
  <desc id="desc">Granatowa tarcza ze złotą obwódką, gwiazdą i piłką nożną.</desc>
  <defs>
    <linearGradient id="shield" x1="28" x2="178" y1="21" y2="195" gradientUnits="userSpaceOnUse">
      <stop offset="0" stop-color="#082a5d"/>
      <stop offset="1" stop-color="#031b3f"/>
    </linearGradient>
    <linearGradient id="gold" x1="58" x2="176" y1="30" y2="188" gradientUnits="userSpaceOnUse">
      <stop offset="0" stop-color="#ffe08a"/>
      <stop offset="0.55" stop-color="#e6b94f"/>
      <stop offset="1" stop-color="#c99625"/>
    </linearGradient>
  </defs>

  <path fill="url(#shield)" d="M110 9 35 39c-3 43 3 80 18 111 14 29 34 49 57 61 23-12 43-32 57-61 15-31 21-68 18-111L110 9Z"/>
  <path fill="url(#gold)" d="M110 23 49 48c-1 34 5 64 17 89 11 22 26 38 44 49 18-11 33-27 44-49 12-25 18-55 17-89l-61-25Zm0 10 51 21c0 31-6 57-16 79-9 18-21 32-35 42-14-10-26-24-35-42-10-22-16-48-16-79l51-21Z"/>
  <path fill="url(#gold)" d="m110 45 7 19h20l-16 12 6 19-17-11-17 11 6-19-16-12h20l7-19Z"/>

  <circle cx="110" cy="121" r="55" fill="#ffffff"/>
  <circle cx="110" cy="121" r="48" fill="none" stroke="#082a5d" stroke-width="6"/>
  <path fill="#082a5d" d="m110 93 24 18-9 29H95l-9-29 24-18Z"/>
  <path fill="#082a5d" d="m76 98 18-15 12 12-23 17-15-5 8-9Zm68-15 18 15 8 9-15 5-23-17 12-12Zm-78 58 14 4 14 27-15 1a48 48 0 0 1-13-32Zm88 4 14-4a48 48 0 0 1-13 32l-15-1 14-27Zm-42 20 18-13 12 22a48 48 0 0 1-64 0l12-22 18 13Z"/>
  <path fill="none" stroke="#082a5d" stroke-linecap="round" stroke-linejoin="round" stroke-width="4" d="m86 111-18-4m18 4 9 29m39-29 21 1m-21-1-9 29m-30 0-5 25m35-25 5 25m-36-70-18 3m68-3 18 3"/>
  <path fill="none" stroke="#ffffff" stroke-linecap="round" stroke-width="5" d="M72 132a39 39 0 0 1 0-21"/>
</svg>
